# xmcd
#
# Track frame offsets: 
#        182
#        20365
#        32202
#        45410
#        59730
#        73292
#        81122
#        95740
#        115632
#        134710
#        146685
#        151700
#        170742
#        185305
#
# Disc length: 2637 seconds
#
# Revision: 2
# Processed by: cddbd v1.5.2PL0 Copyright (c) Steve Scherf et al.
# Submitted via: ExactAudioCopy v1.1
#
DISCID=c70a4b0e
DTITLE=David Evans and Winnie Holzman - Birds of Paradise
DYEAR=1999
DGENRE=Musical
TTITLE0=So Many Nights
TTITLE1=Every Day is Night
TTITLE2=Somebody
TTITLE3=Coming True
TTITLE4=It's Only a Play
TTITLE5=She's Out There
TTITLE6=Birds of Paradise
TTITLE7=Imagining You
TTITLE8=Penguins Must Sing
TTITLE9=You're Mine
TTITLE10=Things I Can't Forget
TTITLE11=After Opening Night
TTITLE12=Chekhov
TTITLE13=Something New
EXTD=
EXTT0=
EXTT1=
EXTT2=
EXTT3=
EXTT4=
EXTT5=
EXTT6=
EXTT7=
EXTT8=
EXTT9=
EXTT10=
EXTT11=
EXTT12=
EXTT13=
PLAYORDER=
